<?xml version="1.0" encoding="utf-8"?>
<!-- Generator: Adobe Illustrator 22.0.0, SVG Export Plug-In . SVG Version: 6.00 Build 0)  -->
<svg version="1.1" baseProfile="basic" id="Layer_1"
	 xmlns="http://www.w3.org/2000/svg" xmlns:xlink="http://www.w3.org/1999/xlink" x="0px" y="0px" viewBox="0 0 525 525"
	 xml:space="preserve">
<g>
	<path fill="#323233" stroke="#010101" stroke-width="12" stroke-miterlimit="10" d="M181.5,42.9c-0.9,0.1-1.8,0.3-2.6,0.7
		L11.7,116.5c-1.3,0.6-2.4,1.4-3.3,2.6s-1.4,2.5-1.5,3.9s0.1,2.8,0.6,4.1s1.5,2.4,2.6,3.2c23.9,17.4,47.8,34.9,71.8,52.4L10.2,235
		c-1.1,0.8-2,2-2.6,3.2C7,239.5,6.8,241,7,242.4s0.7,2.7,1.5,3.9s2,2,3.3,2.6l74.9,32.7v117.3c0,0.6,0.1,1.2,0.2,1.8
		c-0.4,1.9-0.2,3.8,0.7,5.5s2.3,3,4.1,3.7l167.1,71.6c0.3,0.1,0.7,0.2,1,0.3c0.1,0,0.1,0,0.2,0c0.1,0,0.2,0.1,0.3,0.2
		c0.2,0.1,0.4,0.1,0.6,0.2c0,0,0.1,0,0.2,0c0,0,0,0,0.1,0c0.5,0,1,0,1.6,0c0.2,0,0.5-0.1,0.7-0.2c0,0,0.1,0,0.1,0c0.1,0,0.1,0,0.2,0
		c0.2,0,0.4-0.1,0.6-0.2c0.3-0.1,0.5-0.2,0.8-0.3c0.1,0,0.2-0.1,0.3-0.2l167.2-71.6c1.8-0.7,3.2-2,4.1-3.7c0.9-1.7,1.1-3.6,0.7-5.5
		c0.1-0.6,0.2-1.2,0.2-1.8v-118c25-10.9,50-21.8,74.9-32.7c1.3-0.6,2.4-1.5,3.2-2.6c0.8-1.1,1.3-2.5,1.5-3.9
		c0.2-1.4-0.1-2.8-0.6-4.1s-1.5-2.4-2.6-3.2l-74.5-54.4c0-0.1,0-0.1-0.1-0.2s0-0.1-0.1-0.2l67.3-49.1c1.1-0.8,2-1.9,2.6-3.2
		c0.6-1.3,0.8-2.7,0.6-4.1c-0.2-1.4-0.7-2.7-1.5-3.9s-2-2-3.3-2.6L337.8,43.7c-1-0.4-2-0.7-3.1-0.7c-1.7,0-3.4,0.5-4.8,1.5
		l-71.4,52.1l-71.8-52.4c-1.5-1.1-3.4-1.7-5.3-1.5L181.5,42.9z M181.1,60.1l65.1,47.6L95.1,172.5c-21.4-15.6-42.8-31.3-64.3-46.9
		L181.1,60.1z M335.6,60.4l150.3,65.5l-61.3,44.7l-151.1-64.9L335.6,60.4L335.6,60.4z M262,118.3l149.5,64.2L262,246.7L213.9,226
		l-61.8-26.5l-39.7-17L262,118.3L262,118.3z M429.2,192.4l64,46.7C443.1,260.9,393,282.8,343,304.6l-64.9-47.4L429.2,192.4
		L429.2,192.4z M95.5,192.6l50.4,21.6l61.8,26.5l38.9,16.7l-65.4,47.8L30.9,239.7L95.5,192.6L95.5,192.6z M270,271.2l67.3,49.1
		c1.1,0.8,2.4,1.3,3.8,1.5c1.4,0.1,2.8,0,4-0.6c25.5-11.1,50.9-22.2,76.4-33.3v109.4L270,462.1V271.2L270,271.2z M254.1,271.8v190.3
		l-151.5-64.9V288.5l76.4,33.3c1.3,0.5,2.7,0.8,4,0.6c1.4-0.1,2.7-0.7,3.8-1.5L254.1,271.8L254.1,271.8z M333.4,360.4
		c0,0-0.1,0-0.1,0c-1,0-1.9,0.3-2.8,0.7L288,379.3c-1,0.4-1.8,1-2.6,1.8c-0.7,0.8-1.3,1.6-1.7,2.6c-0.4,1-0.6,2-0.6,3.1
		c0,1,0.2,2.1,0.6,3.1s1,1.8,1.8,2.6c0.8,0.7,1.6,1.3,2.6,1.7c1,0.4,2,0.6,3.1,0.6c1,0,2.1-0.2,3-0.6l42.4-18.2
		c1.8-0.7,3.2-2,4.1-3.7c0.9-1.7,1.2-3.6,0.8-5.5c-0.4-1.9-1.5-3.5-3-4.7S335.3,360.3,333.4,360.4L333.4,360.4z M375.8,371.4
		C375.7,371.4,375.7,371.4,375.8,371.4c-1.1,0-2,0.3-2.9,0.7l-42.4,18.2L288,408.4c-1,0.4-1.9,1-2.7,1.7s-1.4,1.6-1.8,2.6
		c-0.4,1-0.6,2.1-0.6,3.1c0,1.1,0.2,2.1,0.6,3.1c0.4,1,1,1.9,1.8,2.6c0.8,0.8,1.7,1.3,2.7,1.7c1,0.4,2.1,0.5,3.2,0.5
		c1.1,0,2.1-0.3,3.1-0.8l42.4-18.2l42.4-18.2c1.8-0.7,3.2-2,4.1-3.7s1.2-3.6,0.8-5.5c-0.4-1.9-1.5-3.5-3-4.7
		C379.5,371.8,377.7,371.2,375.8,371.4L375.8,371.4L375.8,371.4z"/>
</g>
</svg>
