<?xml version="1.0" encoding="utf-8"?>
<!-- Generator: Adobe Illustrator 26.0.0, SVG Export Plug-In . SVG Version: 6.00 Build 0)  -->
<svg version="1.1" id="Layer_1" xmlns="http://www.w3.org/2000/svg" xmlns:xlink="http://www.w3.org/1999/xlink" x="0px" y="0px"
	 viewBox="0 0 841.89 595.28" style="enable-background:new 0 0 841.89 595.28;" xml:space="preserve">
<style type="text/css">
	.st0{fill-rule:evenodd;clip-rule:evenodd;fill:#323233;stroke:#000000;stroke-width:4;stroke-miterlimit:10;}
</style>
<g>
	<path class="st0" d="M330.53,63.95c-0.89,0.07-1.77,0.29-2.58,0.66l-167.24,72.9c-1.29,0.56-2.41,1.45-3.25,2.59
		c-0.84,1.14-1.36,2.47-1.51,3.88s0.06,2.82,0.63,4.11c0.57,1.29,1.47,2.41,2.6,3.24c23.91,17.45,47.84,34.91,71.75,52.36
		l-71.75,52.36c-1.14,0.83-2.04,1.95-2.6,3.24c-0.57,1.29-0.79,2.71-0.63,4.11s0.68,2.74,1.51,3.87s1.96,2.03,3.25,2.59l74.93,32.67
		v117.29c-0.01,0.62,0.05,1.24,0.19,1.84c-0.42,1.85-0.17,3.79,0.7,5.47c0.87,1.68,2.31,3,4.06,3.72l167.14,71.62
		c0.33,0.12,0.66,0.23,1,0.31c0.07,0,0.15,0,0.22,0c0.1,0.05,0.21,0.11,0.31,0.16c0.2,0.06,0.41,0.11,0.62,0.16
		c0.05,0,0.11,0,0.16,0c0.02,0,0.04,0,0.06,0c0.52,0.05,1.04,0.05,1.56,0c0.23-0.04,0.46-0.1,0.69-0.16c0.04,0,0.08,0,0.12,0
		c0.06,0,0.13,0,0.19,0c0.2-0.05,0.4-0.1,0.59-0.16c0.25-0.07,0.5-0.16,0.75-0.26c0.11-0.05,0.21-0.1,0.31-0.16l167.17-71.62
		c1.76-0.72,3.2-2.04,4.08-3.73c0.87-1.69,1.12-3.64,0.69-5.49c0.13-0.6,0.19-1.2,0.19-1.81V301.74
		c24.98-10.89,49.95-21.78,74.93-32.67c1.28-0.56,2.4-1.45,3.23-2.59c0.83-1.13,1.35-2.47,1.5-3.86c0.15-1.4-0.06-2.81-0.62-4.1
		c-0.56-1.29-1.45-2.4-2.58-3.24l-74.52-54.4c-0.02-0.05-0.04-0.11-0.06-0.16c-0.02-0.05-0.04-0.11-0.06-0.16l67.27-49.08
		c1.14-0.83,2.03-1.95,2.6-3.24c0.57-1.29,0.78-2.71,0.63-4.11c-0.16-1.4-0.68-2.74-1.51-3.87s-1.96-2.03-3.25-2.59l-167.2-72.9
		c-0.98-0.44-2.04-0.67-3.11-0.69c-1.71-0.01-3.38,0.52-4.76,1.54l-71.35,52.08L335.8,65.33c-1.52-1.12-3.38-1.66-5.26-1.54
		L330.53,63.95z M330.13,81.14l65.12,47.55l-151.13,64.87c-21.42-15.63-42.83-31.26-64.25-46.89L330.13,81.14z M484.6,81.4
		l150.26,65.52l-61.32,44.74L422.4,126.79L484.6,81.4L484.6,81.4z M411.04,139.33l149.54,64.21l-149.54,64.21l-48.15-20.66
		l-61.82-26.51l-39.68-17.04L411.04,139.33L411.04,139.33z M578.21,213.42l64,46.71c-50.09,21.84-100.18,43.69-150.26,65.53
		l-64.9-47.36L578.21,213.42L578.21,213.42z M244.46,213.67l50.36,21.6l61.82,26.54l38.93,16.73l-65.43,47.77l-150.26-65.52
		L244.46,213.67L244.46,213.67z M419.01,292.2l67.27,49.08c1.12,0.82,2.43,1.33,3.81,1.48c1.37,0.15,2.77-0.05,4.04-0.6
		c25.45-11.1,50.91-22.19,76.36-33.29v109.35l-151.48,64.9V292.2L419.01,292.2z M403.06,292.83v190.29l-151.48-64.9v-108.7
		l76.36,33.29c1.27,0.55,2.66,0.76,4.04,0.6c1.38-0.15,2.69-0.67,3.81-1.48L403.06,292.83L403.06,292.83z M482.39,381.48
		c-0.03,0-0.06,0-0.1,0c-0.98,0.05-1.94,0.29-2.83,0.69l-42.42,18.2c-0.96,0.41-1.83,1.02-2.57,1.77c-0.73,0.75-1.31,1.65-1.7,2.62
		c-0.39,0.98-0.58,2.02-0.57,3.07c0.01,1.05,0.23,2.09,0.64,3.06c0.41,0.97,1.01,1.84,1.76,2.58c0.75,0.73,1.64,1.31,2.61,1.7
		c0.97,0.39,2.01,0.58,3.06,0.57c1.05-0.01,2.08-0.23,3.05-0.65l42.39-18.2c1.76-0.69,3.22-2,4.11-3.67
		c0.89-1.67,1.16-3.61,0.76-5.47c-0.4-1.86-1.45-3.51-2.95-4.66c-1.5-1.15-3.37-1.73-5.26-1.63L482.39,381.48z M524.77,392.4
		c-0.03,0-0.06,0-0.09,0c-0.98,0.05-1.94,0.28-2.83,0.69l-42.39,18.2l-42.42,18.19c-1,0.38-1.92,0.97-2.7,1.72
		c-0.78,0.75-1.39,1.65-1.81,2.64c-0.42,0.99-0.64,2.06-0.63,3.14c0,1.08,0.22,2.15,0.65,3.14c0.42,0.99,1.04,1.89,1.82,2.63
		c0.78,0.75,1.7,1.32,2.71,1.7c1.01,0.38,2.08,0.55,3.16,0.5c1.07-0.05,2.13-0.32,3.1-0.78L485.72,426l42.39-18.19
		c1.76-0.69,3.22-2,4.12-3.67s1.17-3.62,0.77-5.48c-0.4-1.86-1.45-3.51-2.95-4.66c-1.51-1.16-3.37-1.74-5.26-1.63V392.4z"/>
</g>
</svg>
