<?xml version="1.0" encoding="utf-8"?>
<!-- Generator: Adobe Illustrator 26.0.0, SVG Export Plug-In . SVG Version: 6.00 Build 0)  -->
<svg version="1.1" id="Layer_1" xmlns="http://www.w3.org/2000/svg" xmlns:xlink="http://www.w3.org/1999/xlink" x="0px" y="0px"
	 viewBox="0 0 841.89 595.28" style="enable-background:new 0 0 841.89 595.28;" xml:space="preserve">
<style type="text/css">
	.st0{fill-rule:evenodd;clip-rule:evenodd;fill:#010101;stroke:#000000;stroke-width:4;stroke-miterlimit:10;}
</style>
<path class="st0" d="M428.87,497.23c-5.31,3.94-11.59,5.92-17.86,5.92c-6.27,0-12.55-1.98-17.86-5.92
	c-49.28-36.61-185.69-141.31-218.01-201.61c-39.62-73.92-16.11-168.47,52.52-211.14c22.56-14.03,47.17-20.7,71.44-20.7
	c42.58,0,84.15,20.49,111.9,57.67c27.76-37.19,69.33-57.67,111.9-57.67c24.28,0,48.89,6.66,71.45,20.7
	c68.63,42.67,92.14,137.22,52.52,211.14C614.58,355.91,478.16,460.62,428.87,497.23L428.87,497.23z M583.11,102.46
	c-18.39-11.44-39.2-17.48-60.2-17.48c-36.97,0-71.54,17.9-94.85,49.13l-17.05,22.85l-17.06-22.85
	c-23.29-31.21-57.87-49.13-94.84-49.13c-20.99,0-41.81,6.04-60.2,17.48c-59.22,36.83-79.4,119-45.02,183.17
	c30.68,57.23,170,163.42,211.97,194.6c1.9,1.41,3.85,1.71,5.15,1.71c1.3,0,3.24-0.3,5.15-1.71
	c41.97-31.18,181.29-137.37,211.97-194.6C662.53,221.45,642.34,139.28,583.11,102.46L583.11,102.46z"/>
</svg>
