<?xml version="1.0" encoding="utf-8"?>
<!-- Generator: Adobe Illustrator 22.0.0, SVG Export Plug-In . SVG Version: 6.00 Build 0)  -->
<svg version="1.1" baseProfile="basic" id="Layer_1"
	 xmlns="http://www.w3.org/2000/svg" xmlns:xlink="http://www.w3.org/1999/xlink" x="0px" y="0px" viewBox="0 0 500 500"
	 xml:space="preserve">
<circle fill="#FFFFFF" cx="250" cy="249.9" r="238.5"/>
<path d="M194.1,137.6c0,31.2,0,62.3,0,93.5c2.2-2.3,4.1-4.5,6.2-6.5c8.9-8.3,19.4-13.6,31.3-15.9c4-0.8,8.2-1.3,12.3-1.5
	c15.8-1,30.9,2.2,44.9,9.5c21.2,11,35.1,28.2,41.8,51.1c1.7,5.7,2.9,11.5,3.2,17.4c0.3,5.8,0.7,11.6,0.4,17.3
	c-0.7,13.7-3.9,26.9-10.2,39.2c-5.6,10.9-13.3,20.2-22.9,27.9c-11.1,8.7-23.7,14.2-37.4,17.1c-4.3,0.9-8.7,1.4-13.1,1.8
	c-4.2,0.4-8.5,0.6-12.7,0.5c-18.6-0.6-36.1-5.1-51.7-15.7c-10.9-7.4-19.4-16.9-25.6-28.4c-4.7-8.7-7.9-17.9-9.6-27.7
	c-1.1-5.9-1.7-11.7-1.7-17.7c0-21-0.2-42-0.2-63c0-32.4,0-64.8,0-97.3c0-1.7,0-1.7,1.6-1.7c14,0,27.9,0,41.9,0
	C193,137.6,193.5,137.6,194.1,137.6z M241.4,249c-3.6,0.4-7.3,0.7-10.9,1.4c-8.8,1.6-16.5,5.5-22.8,11.8
	c-8.9,8.9-12.8,20.1-13.5,32.5c-0.3,5.4,0.1,10.7,1.2,16c1.7,7.6,4.8,14.6,9.9,20.6c8.6,10,19.8,14.6,32.7,15.4
	c4.8,0.3,9.5,0,14.2-1c11.9-2.5,21.5-8.4,28.4-18.5c6.6-9.7,9-20.5,8.4-32.1c-0.2-4.1-0.7-8.1-1.9-12.1c-3-10.6-8.7-19.3-17.8-25.5
	C261,251.7,251.6,249.3,241.4,249z"/>
<path d="M349,108.9c0,0.6,0,1,0,1.4c0,14.2,0,28.4,0,42.6c0,0.8-0.1,1.4-0.9,1.9c-14.4,8.8-28.8,17.7-43.2,26.6
	c-0.3,0.2-0.7,0.4-1.2,0.6c0-0.5-0.1-0.8-0.1-1.1c0-14.4,0-28.8,0-43.1c0-0.7,0.1-1.1,0.8-1.5c14.7-9,29.3-18,44-27.1
	C348.5,109,348.6,109,349,108.9z"/>
<path fill="none" stroke="#000000" stroke-width="22" stroke-miterlimit="10" d="M488.5,249.8c0,131.7-106.8,238.5-238.5,238.5
	S11.5,381.5,11.5,249.8">
	<animateTransform attributeName="transform" type="rotate" from="0 250 250" to="360 250 250" dur="0.5s" repeatCount="indefinite"/>
</path>
</svg>
