<?xml version="1.0" encoding="utf-8"?>
<!-- Generator: Adobe Illustrator 22.0.0, SVG Export Plug-In . SVG Version: 6.00 Build 0)  -->
<svg version="1.1" baseProfile="basic" id="Layer_1"
	 xmlns="http://www.w3.org/2000/svg" xmlns:xlink="http://www.w3.org/1999/xlink" x="0px" y="0px" viewBox="0 0 400 200"
	 xml:space="preserve">
<path fill="#FEB449" d="M34.1,87.5c-6.5,0-12,2.5-15.6,7.1V67.5H5.6v45.8c0,15.9,10.6,26.6,26.5,26.6s26.9-11,26.9-26.7
	C59,96.3,46.5,87.5,34.1,87.5z M32.1,127.8c-8.2,0-13.7-5.6-13.7-14.1S24,99.6,32.1,99.6s13.8,5.8,13.8,14.1S40.3,127.8,32.1,127.8
	L32.1,127.8z"/>
<polygon fill="#FEB449" points="66.2,138.6 79,138.6 79,91.8 66.2,99.2 "/>
<path fill="#FEB449" d="M142.9,87.5c-7.3,0-13.3,2.9-16.8,8.3c-3.7-5.3-9.6-8.3-16.8-8.3c-13.1,0-21,8.5-21,22.8v28.4h12.9v-28.4
	c0-7,3.2-10.6,9.3-10.6s9.3,3.8,9.3,10.6v28.4h12.9v-28.4c0-6.9,3.3-10.6,9.2-10.6c6.1,0,9.3,3.7,9.3,10.6v28.4h12.9v-28.4
	C163.8,96,156,87.5,142.9,87.5z"/>
<path fill="#FEB449" d="M193.3,87.5c-13.9,0-21.9,8.1-21.9,22.3v28.9h12.9v-28.9c0-6.8,3-10.1,9-10.1l0,0h9.9V87.5h-10L193.3,87.5z"
	/>
<path fill="#FEB449" d="M230.3,87.5c-15.5,0-26.8,11-26.8,26.2s11.3,26.2,26.8,26.2s26.8-11,26.8-26.2S245.8,87.5,230.3,87.5z
	 M230.3,127.8c-8.1,0-13.8-5.8-13.8-14.1s5.7-14.1,13.8-14.1s13.7,5.7,13.7,14.1S238.5,127.8,230.3,127.8z"/>
<path fill="#FEB449" d="M287.5,87.5c-15.5,0-26.8,11-26.8,26.2s11.3,26.2,26.8,26.2s26.8-11,26.8-26.2S303,87.5,287.5,87.5z
	 M287.5,127.8c-8.1,0-13.8-5.8-13.8-14.1s5.7-14.1,13.8-14.1s13.7,5.7,13.7,14.1S295.6,127.8,287.5,127.8z"/>
<path fill="#FEB449" d="M373.4,87.5c-7.3,0-13.3,2.9-16.8,8.3c-3.7-5.3-9.6-8.3-16.8-8.3c-13.1,0-21,8.5-21,22.8v28.4h12.9v-28.4
	c0-7,3.2-10.6,9.3-10.6s9.3,3.8,9.3,10.6v28.4h12.9v-28.4c0-6.9,3.3-10.6,9.2-10.6s9.3,3.7,9.3,10.6v28.4h12.9v-28.4
	C394.4,96,386.6,87.5,373.4,87.5z"/>
<polygon opacity="0.7" fill="#FEB449" points="61.5,75.4 70.8,80.9 70.8,90.1 61.5,84.6 "/>
<polygon fill="#FEB449" points="80.2,75.4 70.8,80.9 70.8,90.1 80.2,84.6 "/>
<polygon fill="#FEB449" points="61.5,75.4 70.8,70 70.8,62.1 61.5,67.5 "/>
<polygon opacity="0.3" fill="#FEB449" points="80.2,75.4 70.8,70 70.8,62.1 80.2,67.5 "/>
<g>
	<path fill="#FEB449" d="M324.5,159.7c0,1.4-0.2,2.6-0.7,3.7c-0.4,1.1-1.1,2-1.8,2.8c-0.8,0.8-1.7,1.4-2.8,1.8s-2.3,0.6-3.6,0.6
		c-1.3,0-2.6-0.2-3.7-0.7c-1.1-0.4-2.1-1.1-2.9-1.8c-0.8-0.8-1.4-1.7-1.9-2.8c-0.4-1.1-0.7-2.3-0.7-3.5c0-1.4,0.2-2.7,0.7-3.8
		c0.5-1.1,1.1-2,1.9-2.8c0.8-0.7,1.7-1.3,2.7-1.7c1-0.4,2.1-0.6,3.1-0.6c1.4,0,2.7,0.3,3.8,0.9c1.1,0.6,1.9,1.4,2.5,2.4h0.1v-10.2
		h3.2V159.7z M315.5,165.7c0.9,0,1.6-0.1,2.3-0.4c0.7-0.3,1.3-0.7,1.8-1.2c0.5-0.5,0.9-1.1,1.2-1.8c0.3-0.7,0.4-1.5,0.4-2.4
		c0-0.8-0.1-1.6-0.4-2.3c-0.3-0.7-0.7-1.3-1.2-1.9c-0.5-0.5-1.1-0.9-1.8-1.2c-0.7-0.3-1.5-0.4-2.3-0.4c-0.9,0-1.6,0.1-2.4,0.4
		s-1.3,0.7-1.8,1.2c-0.5,0.5-0.9,1.1-1.2,1.9c-0.3,0.7-0.4,1.5-0.4,2.3c0,0.9,0.1,1.6,0.4,2.4c0.3,0.7,0.7,1.3,1.2,1.8
		s1.1,0.9,1.8,1.2C313.9,165.5,314.7,165.7,315.5,165.7z"/>
	<path fill="#FEB449" d="M330.6,161L330.6,161c0.2,1.5,0.9,2.6,1.9,3.4c1,0.8,2.2,1.2,3.8,1.2c2.2,0,3.7-0.7,4.7-2.1h3.6c-0.7,1.6-1.7,2.8-3.1,3.7
		c-1.4,0.9-3.1,1.4-5.1,1.4c-1.3,0-2.6-0.2-3.7-0.7c-1.1-0.4-2.1-1.1-2.9-1.8c-0.8-0.8-1.4-1.7-1.9-2.8c-0.4-1.1-0.7-2.3-0.7-3.5
		c0-1.3,0.2-2.4,0.7-3.5c0.4-1.1,1.1-2,1.9-2.8s1.8-1.4,2.9-1.8c1.1-0.4,2.3-0.7,3.7-0.7c1.3,0,2.5,0.2,3.6,0.7
		c1.1,0.4,2.1,1.1,2.8,1.8s1.4,1.7,1.8,2.8c0.4,1.1,0.7,2.3,0.7,3.5v1.2H330.6z M336.2,154c-1.4,0-2.6,0.4-3.6,1.1s-1.6,1.7-1.9,3
		v0.1h11.1V158c-0.3-1.2-1-2.2-2-3C338.8,154.3,337.6,154,336.2,154z"/>
	<path fill="#FEB449" d="M359.1,168.2v-9.7c0-1.5-0.4-2.7-1.1-3.4c-0.8-0.7-1.7-1.1-2.9-1.1c-1.2,0-2.1,0.4-2.9,1.1c-0.7,0.7-1.1,1.9-1.1,3.4v9.7
		h-3.2v-9.7c0-1.3,0.2-2.4,0.5-3.3c0.4-0.9,0.8-1.7,1.5-2.3c0.6-0.6,1.4-1.1,2.2-1.4c0.8-0.3,1.8-0.5,2.8-0.5c1.3,0,2.4,0.3,3.5,0.8
		c1,0.6,1.8,1.4,2.4,2.4h0.1c0.6-1.1,1.4-1.9,2.4-2.4c1-0.6,2.2-0.8,3.5-0.8c1,0,1.9,0.2,2.7,0.5c0.9,0.3,1.6,0.8,2.2,1.4
		c0.6,0.6,1.1,1.4,1.5,2.3c0.4,0.9,0.5,2.1,0.5,3.3v9.7h-3.2v-9.7c0-1.6-0.4-2.7-1.1-3.4c-0.7-0.7-1.7-1.1-2.9-1.1
		c-1.2,0-2.1,0.4-2.9,1.1c-0.7,0.7-1.1,1.9-1.1,3.4v9.7H359.1z"/>
	<path fill="#FEB449" d="M394.3,159.8c0,1.3-0.2,2.4-0.7,3.5c-0.4,1.1-1.1,2-1.9,2.8c-0.8,0.8-1.8,1.4-2.9,1.8c-1.1,0.4-2.3,0.7-3.6,0.7
		c-1.3,0-2.6-0.2-3.7-0.7c-1.1-0.4-2.1-1.1-2.9-1.8c-0.8-0.8-1.4-1.7-1.9-2.8c-0.4-1.1-0.7-2.3-0.7-3.5c0-1.3,0.2-2.4,0.7-3.5
		c0.4-1.1,1.1-2,1.9-2.8s1.8-1.4,2.9-1.8c1.1-0.4,2.3-0.7,3.7-0.7c1.3,0,2.5,0.2,3.6,0.7c1.1,0.4,2.1,1.1,2.9,1.8s1.4,1.7,1.9,2.8
		C394.1,157.4,394.3,158.5,394.3,159.8z M385.2,165.7c0.9,0,1.6-0.1,2.4-0.4c0.7-0.3,1.3-0.7,1.8-1.2c0.5-0.5,0.9-1.1,1.2-1.8
		c0.3-0.7,0.4-1.5,0.4-2.4c0-0.8-0.1-1.6-0.4-2.3c-0.3-0.7-0.7-1.3-1.2-1.9c-0.5-0.5-1.1-0.9-1.8-1.2c-0.7-0.3-1.5-0.4-2.4-0.4
		c-0.9,0-1.6,0.1-2.4,0.4s-1.3,0.7-1.8,1.2c-0.5,0.5-0.9,1.1-1.2,1.9c-0.3,0.7-0.4,1.5-0.4,2.3c0,0.9,0.1,1.6,0.4,2.4
		c0.3,0.7,0.7,1.3,1.2,1.8s1.1,0.9,1.8,1.2C383.6,165.5,384.4,165.7,385.2,165.7z"/>
</g>
</svg>
