<?xml version="1.0" encoding="utf-8"?>
<!-- Generator: Adobe Illustrator 22.0.0, SVG Export Plug-In . SVG Version: 6.00 Build 0)  -->
<svg version="1.1" baseProfile="basic" id="Layer_1"
	 xmlns="http://www.w3.org/2000/svg" xmlns:xlink="http://www.w3.org/1999/xlink" x="0px" y="0px" viewBox="0 0 400 200"
	 xml:space="preserve">
<path fill="#FCB349" d="M34.1,87.5c-6.5,0-12,2.5-15.6,7.1V67.5H5.6v45.8c0,15.9,10.6,26.6,26.5,26.6s26.9-11,26.9-26.7
	C59,96.3,46.5,87.5,34.1,87.5z M32.1,127.8c-8.2,0-13.7-5.6-13.7-14.1S24,99.6,32.1,99.6s13.8,5.8,13.8,14.1S40.3,127.8,32.1,127.8
	L32.1,127.8z"/>
<polygon fill="#FCB349" points="66.2,138.6 79,138.6 79,91.8 66.2,99.2 "/>
<path fill="#FCB349" d="M142.9,87.5c-7.3,0-13.3,2.9-16.8,8.3c-3.7-5.3-9.6-8.3-16.8-8.3c-13.1,0-21,8.5-21,22.8v28.4h12.9v-28.4
	c0-7,3.2-10.6,9.3-10.6s9.3,3.8,9.3,10.6v28.4h12.9v-28.4c0-6.9,3.3-10.6,9.2-10.6c6.1,0,9.3,3.7,9.3,10.6v28.4h12.9v-28.4
	C163.8,96,156,87.5,142.9,87.5z"/>
<path fill="#FCB349" d="M193.3,87.5c-13.9,0-21.9,8.1-21.9,22.3v28.9h12.9v-28.9c0-6.8,3-10.1,9-10.1l0,0h9.9V87.5h-10L193.3,87.5z"
	/>
<path fill="#FCB349" d="M230.3,87.5c-15.5,0-26.8,11-26.8,26.2s11.3,26.2,26.8,26.2s26.8-11,26.8-26.2S245.8,87.5,230.3,87.5z
	 M230.3,127.8c-8.1,0-13.8-5.8-13.8-14.1s5.7-14.1,13.8-14.1s13.7,5.7,13.7,14.1S238.5,127.8,230.3,127.8z"/>
<path fill="#FCB349" d="M287.5,87.5c-15.5,0-26.8,11-26.8,26.2s11.3,26.2,26.8,26.2s26.8-11,26.8-26.2S303,87.5,287.5,87.5z
	 M287.5,127.8c-8.1,0-13.8-5.8-13.8-14.1s5.7-14.1,13.8-14.1s13.7,5.7,13.7,14.1S295.6,127.8,287.5,127.8z"/>
<path fill="#FCB349" d="M373.4,87.5c-7.3,0-13.3,2.9-16.8,8.3c-3.7-5.3-9.6-8.3-16.8-8.3c-13.1,0-21,8.5-21,22.8v28.4h12.9v-28.4
	c0-7,3.2-10.6,9.3-10.6s9.3,3.8,9.3,10.6v28.4h12.9v-28.4c0-6.9,3.3-10.6,9.2-10.6s9.3,3.7,9.3,10.6v28.4h12.9v-28.4
	C394.4,96,386.6,87.5,373.4,87.5z"/>
<polygon opacity="0.7" fill="#FCB349" points="61.5,75.4 70.8,80.9 70.8,90.1 61.5,84.6 "/>
<polygon fill="#FCB349" points="80.2,75.4 70.8,80.9 70.8,90.1 80.2,84.6 "/>
<polygon fill="#FCB349" points="61.5,75.4 70.8,70 70.8,62.1 61.5,67.5 "/>
<polygon opacity="0.3" fill="#FCB349" points="80.2,75.4 70.8,70 70.8,62.1 80.2,67.5 "/>
</svg>
